<svg width="30" height="30" viewBox="0 0 30 30" fill="none" xmlns="http://www.w3.org/2000/svg">
<path d="M29.75 12.4C28.55 5.35 22.4 0 15 0C7.6 0 1.45 5.35 0.25 12.4L15 5L29.75 12.4Z" fill="#699635"/>
<path d="M0.25 17.5996C1.45 24.6496 7.6 29.9996 15 29.9996C22.4 29.9996 28.55 24.6496 29.75 17.5996L15 24.9996L0.25 17.5996Z" fill="#699635"/>
<path d="M15 5L0.25 12.4C0.1 13.25 0 14.1 0 15C0 15.9 0.1 16.75 0.25 17.6L15 25L29.75 17.6C29.9 16.75 30 15.9 30 15C30 14.1 29.9 13.25 29.75 12.4L15 5Z" fill="#FFE62E"/>
<path d="M12 13.2002C10.4 13.2002 8.9 13.5502 7.55 14.1502C7.5 14.4502 7.5 14.7002 7.5 15.0002C7.5 19.1502 10.85 22.5002 15 22.5002C17.8 22.5002 20.25 20.9502 21.55 18.7002C19.7 15.4502 16.1 13.2002 12 13.2002Z" fill="#428BC1"/>
<path d="M22.4 16.2C22.45 15.8 22.5 15.4 22.5 15C22.5 10.85 19.15 7.5 15 7.5C12.05 7.5 9.5 9.2 8.25 11.7C9.45 11.35 10.7 11.15 12 11.15C16.25 11.15 20 13.15 22.4 16.2Z" fill="#428BC1"/>
<path d="M12.0008 11.1504C10.7008 11.1504 9.45078 11.3504 8.25078 11.7004C7.90078 12.4504 7.65078 13.2504 7.55078 14.1504C8.90078 13.5504 10.4008 13.2004 12.0008 13.2004C16.1008 13.2004 19.7008 15.4004 21.5508 18.6504C22.0008 17.9004 22.2508 17.0504 22.4008 16.2004C20.0008 13.1504 16.2508 11.1504 12.0008 11.1504Z" fill="white"/>
<path d="M10 15.5C10.2761 15.5 10.5 15.2761 10.5 15C10.5 14.7239 10.2761 14.5 10 14.5C9.72386 14.5 9.5 14.7239 9.5 15C9.5 15.2761 9.72386 15.5 10 15.5Z" fill="white"/>
<path d="M12 18.5C12.2761 18.5 12.5 18.2761 12.5 18C12.5 17.7239 12.2761 17.5 12 17.5C11.7239 17.5 11.5 17.7239 11.5 18C11.5 18.2761 11.7239 18.5 12 18.5Z" fill="white"/>
<path d="M15 18.5C15.2761 18.5 15.5 18.2761 15.5 18C15.5 17.7239 15.2761 17.5 15 17.5C14.7239 17.5 14.5 17.7239 14.5 18C14.5 18.2761 14.7239 18.5 15 18.5Z" fill="white"/>
<path d="M15 20.5C15.2761 20.5 15.5 20.2761 15.5 20C15.5 19.7239 15.2761 19.5 15 19.5C14.7239 19.5 14.5 19.7239 14.5 20C14.5 20.2761 14.7239 20.5 15 20.5Z" fill="white"/>
<path d="M19 18.5C19.2761 18.5 19.5 18.2761 19.5 18C19.5 17.7239 19.2761 17.5 19 17.5C18.7239 17.5 18.5 17.7239 18.5 18C18.5 18.2761 18.7239 18.5 19 18.5Z" fill="white"/>
<path d="M19 20.5C19.2761 20.5 19.5 20.2761 19.5 20C19.5 19.7239 19.2761 19.5 19 19.5C18.7239 19.5 18.5 19.7239 18.5 20C18.5 20.2761 18.7239 20.5 19 20.5Z" fill="white"/>
<path d="M17 19.5C17.2761 19.5 17.5 19.2761 17.5 19C17.5 18.7239 17.2761 18.5 17 18.5C16.7239 18.5 16.5 18.7239 16.5 19C16.5 19.2761 16.7239 19.5 17 19.5Z" fill="white"/>
<path d="M10 17.5C10.2761 17.5 10.5 17.2761 10.5 17C10.5 16.7239 10.2761 16.5 10 16.5C9.72386 16.5 9.5 16.7239 9.5 17C9.5 17.2761 9.72386 17.5 10 17.5Z" fill="white"/>
</svg>
