<svg width="36" height="37" viewBox="0 0 36 37" fill="none" xmlns="http://www.w3.org/2000/svg">
<g clip-path="url(#clip0_469_877)">
<path d="M36 18.9468C36 9.00565 27.9411 0.946777 18 0.946777C8.05887 0.946777 0 9.00565 0 18.9468C0 28.8879 8.05887 36.9468 18 36.9468C27.9411 36.9468 36 28.8879 36 18.9468Z" fill="#151515"/>
<path d="M25.791 17.2878H23.1419C20.9694 17.2878 19.2002 15.5186 19.2002 13.3461V10.6969C19.2002 10.1928 18.7877 9.78027 18.2835 9.78027H14.3968C11.5735 9.78027 9.29102 11.6136 9.29102 14.8861V23.0078C9.29102 26.2803 11.5735 28.1136 14.3968 28.1136H21.6019C24.4252 28.1136 26.7077 26.2803 26.7077 23.0078V18.2044C26.7077 17.7003 26.2952 17.2878 25.791 17.2878ZM18.256 22.4119L16.4227 24.2453C16.3585 24.3094 16.276 24.3644 16.1935 24.3919C16.111 24.4286 16.0285 24.4469 15.9368 24.4469C15.8452 24.4469 15.7627 24.4286 15.6802 24.3919C15.6068 24.3644 15.5335 24.3094 15.4785 24.2544C15.4693 24.2453 15.4602 24.2453 15.4602 24.2361L13.6268 22.4028C13.361 22.1369 13.361 21.6969 13.6268 21.4311C13.8927 21.1653 14.3327 21.1653 14.5985 21.4311L15.2493 22.1003V18.2594C15.2493 17.8836 15.561 17.5719 15.9368 17.5719C16.3127 17.5719 16.6243 17.8836 16.6243 18.2594V22.1003L17.2843 21.4403C17.5502 21.1744 17.9902 21.1744 18.256 21.4403C18.5218 21.7061 18.5218 22.1461 18.256 22.4119Z" fill="white"/>
<path d="M22.9779 16.0226C23.8487 16.0317 25.0587 16.0317 26.0945 16.0317C26.617 16.0317 26.892 15.4176 26.5254 15.0509C25.2054 13.7217 22.8404 11.3292 21.4837 9.97256C21.1079 9.59673 20.457 9.8534 20.457 10.3759V13.5751C20.457 14.9134 21.5937 16.0226 22.9779 16.0226Z" fill="white"/>
</g>
<defs>
<clipPath id="clip0_469_877">
<rect width="36" height="37" fill="white"/>
</clipPath>
</defs>
</svg>
