<svg width="62" height="62" viewBox="0 0 62 62" fill="none" xmlns="http://www.w3.org/2000/svg">
<g filter="url(#filter0_d_432_757)">
<path fill-rule="evenodd" clip-rule="evenodd" d="M31 10C42.5983 10 52 19.6388 52 31.5311C52 41.042 45.9898 49.1103 37.6507 51.96C36.586 52.1721 36.208 51.4997 36.208 50.9264C36.208 50.2166 36.2332 47.8982 36.2332 45.017C36.2332 43.0095 35.5612 41.6992 34.8073 41.0314C39.484 40.498 44.398 38.6771 44.398 30.4073C44.398 28.0553 43.5832 26.136 42.235 24.6282C42.4534 24.0843 43.1737 21.8943 42.0292 18.9291C42.0292 18.9291 40.2694 18.3522 36.2605 21.1368C34.5826 20.6601 32.785 20.4202 31 20.4118C29.215 20.4202 27.4195 20.6601 25.7437 21.1368C21.7306 18.3522 19.9666 18.9291 19.9666 18.9291C18.8263 21.8943 19.5466 24.0843 19.7629 24.6282C18.421 26.136 17.5999 28.0553 17.5999 30.4073C17.5999 38.6561 22.5034 40.5049 27.1675 41.0488C26.5669 41.5864 26.023 42.5348 25.834 43.9271C24.637 44.4773 21.5962 45.4295 19.723 42.1388C19.723 42.1388 18.6121 40.07 16.5037 39.9188C16.5037 39.9188 14.4562 39.8916 16.3609 41.2272C16.3609 41.2272 17.7364 41.8887 18.6919 44.3772C18.6919 44.3772 19.9246 48.2201 25.7668 46.9181C25.7773 48.7178 25.7962 50.414 25.7962 50.9264C25.7962 51.4955 25.4098 52.1615 24.3619 51.962C16.0165 49.1165 10 41.0441 10 31.5311C10 19.6388 19.4038 10 31 10Z" fill="white"/>
</g>
<defs>
<filter id="filter0_d_432_757" x="0" y="0" width="62" height="62" filterUnits="userSpaceOnUse" color-interpolation-filters="sRGB">
<feFlood flood-opacity="0" result="BackgroundImageFix"/>
<feColorMatrix in="SourceAlpha" type="matrix" values="0 0 0 0 0 0 0 0 0 0 0 0 0 0 0 0 0 0 127 0" result="hardAlpha"/>
<feOffset/>
<feGaussianBlur stdDeviation="5"/>
<feComposite in2="hardAlpha" operator="out"/>
<feColorMatrix type="matrix" values="0 0 0 0 1 0 0 0 0 1 0 0 0 0 1 0 0 0 0.25 0"/>
<feBlend mode="normal" in2="BackgroundImageFix" result="effect1_dropShadow_432_757"/>
<feBlend mode="normal" in="SourceGraphic" in2="effect1_dropShadow_432_757" result="shape"/>
</filter>
</defs>
</svg>
