<svg width="1440" height="1019" viewBox="0 0 1440 1019" fill="none" xmlns="http://www.w3.org/2000/svg">
<path opacity="0.45" d="M604.44 0.576172L632.566 161.58C637.961 192.463 640.674 223.755 640.674 255.106V1018.79M521.622 0.576172L565.692 110.948C591.29 175.056 604.44 243.455 604.44 312.486L604.441 1018.79M459.509 0.576172L506.107 89.4937C546.899 167.331 568.207 253.898 568.207 341.776V1018.79M406.269 0.576172L453.276 78.1378C504.756 163.081 531.974 260.507 531.974 359.832V1018.79M363.38 0.576172L410.402 74.2613C466.133 161.593 495.742 263.033 495.742 366.631V1018.79M327.147 0.576172L374.17 74.2613C429.9 161.593 459.509 263.033 459.509 366.631V1018.79M290.915 0.576172L337.937 74.2613C393.666 161.593 423.276 263.033 423.276 366.631V1018.79M254.682 0.576172L301.704 74.2613C357.433 161.593 387.043 263.033 387.043 366.631V1018.79M218.449 0.576172L265.471 74.2613C321.2 161.593 350.81 263.033 350.81 366.631V1018.79M182.216 0.576172L229.237 74.2613C284.967 161.593 314.577 263.033 314.577 366.631V1018.79M145.983 0.576172L193.004 74.2613C248.735 161.593 278.344 263.033 278.344 366.631V1018.79M109.75 0.576172L156.771 74.2613C212.502 161.593 242.111 263.033 242.111 366.631V1018.79M73.5167 0.576172L120.538 74.2613C176.269 161.593 205.878 263.033 205.878 366.631V1018.79M37.2837 0.576172L84.3055 74.2613C140.036 161.593 169.645 263.033 169.645 366.631V1018.79M1.05078 0.576172L48.0727 74.2613C103.803 161.593 133.412 263.033 133.412 366.631V1018.79M835.89 0.576172L807.765 161.58C802.368 192.463 799.655 223.755 799.655 255.106V1018.79M918.708 0.576172L874.633 110.948C849.037 175.056 835.89 243.455 835.89 312.486V1018.79M980.822 0.576172L934.224 89.4937C893.434 167.331 872.119 253.898 872.119 341.776V1018.79M1034.06 0.576172L987.054 78.1378C935.574 163.081 908.356 260.507 908.356 359.832V1018.79M1076.95 0.576172L1029.92 74.2613C974.196 161.593 944.585 263.033 944.585 366.631V1018.79M1113.18 0.576172L1066.16 74.2613C1010.43 161.593 980.822 263.033 980.822 366.631V1018.79M1149.41 0.576172L1102.39 74.2613C1046.66 161.593 1017.05 263.033 1017.05 366.631V1018.79M1185.65 0.576172L1138.63 74.2613C1082.9 161.593 1053.29 263.033 1053.29 366.631V1018.79M1221.88 0.576172L1174.86 74.2613C1119.13 161.593 1089.52 263.033 1089.52 366.631V1018.79M1258.12 0.576172L1211.09 74.2613C1155.36 161.593 1125.75 263.033 1125.75 366.631V1018.79M1294.34 0.576172L1247.32 74.2613C1191.59 161.593 1161.98 263.033 1161.98 366.631V1018.79M1330.58 0.576172L1283.56 74.2613C1227.83 161.593 1198.22 263.033 1198.22 366.631V1018.79M1366.81 0.576172L1319.79 74.2613C1264.06 161.593 1234.45 263.033 1234.45 366.631V1018.79M1403.05 0.576172L1356.02 74.2613C1300.3 161.593 1270.68 263.033 1270.68 366.631V1018.79M1439.28 0.576172L1392.25 74.2613C1336.52 161.593 1306.91 263.033 1306.91 366.631V1018.79M777.471 0.576212L763.422 207.991V1018.79M717.946 0.576172V1018.79M662.488 0.576172L676.906 207.991V1018.79" stroke="url(#paint0_linear_432_751)" stroke-opacity="0.16"/>
<defs>
<linearGradient id="paint0_linear_432_751" x1="-0.000785873" y1="0.000103611" x2="-0.000785873" y2="963.748" gradientUnits="userSpaceOnUse">
<stop offset="0.1" stop-color="white" stop-opacity="0"/>
<stop offset="0.35" stop-color="white"/>
<stop offset="0.55" stop-color="white" stop-opacity="0.2"/>
<stop offset="0.6" stop-color="white" stop-opacity="0.2"/>
<stop offset="0.7" stop-color="white"/>
<stop offset="1" stop-color="white" stop-opacity="0"/>
</linearGradient>
</defs>
</svg>
