<svg width="60" height="60" viewBox="0 0 60 60" fill="none" xmlns="http://www.w3.org/2000/svg">
<g filter="url(#filter0_d_566_1278)">
<path d="M47.6391 9.00377H12.5962C12.1445 8.98261 11.6931 9.05072 11.2677 9.20425C10.8424 9.35777 10.4516 9.59365 10.1175 9.89839C9.78349 10.2032 9.51283 10.5708 9.32108 10.9803C9.12933 11.3898 9.02021 11.833 9 12.2847V47.4041C9.02646 48.3493 9.41385 49.2488 10.0826 49.9173C10.7514 50.5861 11.6508 50.9735 12.5962 51H47.6391C48.5581 50.9591 49.4246 50.5596 50.0527 49.8874C50.6809 49.2152 51.0206 48.3238 50.999 47.4041V12.2847C51.0066 11.8451 50.9242 11.4085 50.757 11.0019C50.5898 10.5952 50.3412 10.227 50.0265 9.91976C49.712 9.61255 49.338 9.37286 48.9274 9.21535C48.5169 9.05784 48.0785 8.98584 47.6391 9.00377ZM22.1247 44.0181H16.0086V25.3036H22.1247V44.0181ZM19.211 22.4688C18.7842 22.4837 18.359 22.4101 17.962 22.2528C17.5649 22.0955 17.2047 21.8577 16.904 21.5546C16.6033 21.2514 16.3685 20.8893 16.2144 20.491C16.0603 20.0928 15.9902 19.667 16.0086 19.2403C15.9897 18.8091 16.0612 18.3787 16.2185 17.9767C16.3757 17.5747 16.6153 17.21 16.9217 16.906C17.2282 16.602 17.5948 16.3655 17.9981 16.2115C18.4014 16.0575 18.8324 15.9895 19.2635 16.0119C19.6903 15.997 20.1156 16.0705 20.5126 16.2279C20.9096 16.3852 21.2698 16.6229 21.5705 16.9261C21.8712 17.2293 22.106 17.5914 22.2601 17.9896C22.4142 18.3879 22.4843 18.8137 22.4659 19.2403C22.4848 19.6716 22.4133 20.102 22.2561 20.504C22.0988 20.906 21.8593 21.2707 21.5528 21.5746C21.2463 21.8786 20.8797 22.1152 20.4764 22.2692C20.0731 22.4232 19.6421 22.4911 19.211 22.4688ZM44.0167 44.0181H37.8743V33.7816C37.8743 31.3405 37.0081 29.6607 34.8294 29.6607C34.1527 29.6665 33.4941 29.8814 32.9444 30.2762C32.3945 30.671 31.9803 31.2261 31.7582 31.8655C31.5876 32.3448 31.5162 32.8537 31.5482 33.3616V44.0181H25.5109V25.3036H31.5482V27.9284C32.085 26.9422 32.8838 26.1238 33.8566 25.5632C34.8294 25.0028 35.9382 24.7222 37.0606 24.7523C41.0243 24.7523 44.0167 27.3772 44.0167 32.9679V44.0181Z" fill="white"/>
</g>
<defs>
<filter id="filter0_d_566_1278" x="0" y="0" width="60" height="60" filterUnits="userSpaceOnUse" color-interpolation-filters="sRGB">
<feFlood flood-opacity="0" result="BackgroundImageFix"/>
<feColorMatrix in="SourceAlpha" type="matrix" values="0 0 0 0 0 0 0 0 0 0 0 0 0 0 0 0 0 0 127 0" result="hardAlpha"/>
<feOffset/>
<feGaussianBlur stdDeviation="4.5"/>
<feComposite in2="hardAlpha" operator="out"/>
<feColorMatrix type="matrix" values="0 0 0 0 1 0 0 0 0 1 0 0 0 0 1 0 0 0 0.25 0"/>
<feBlend mode="normal" in2="BackgroundImageFix" result="effect1_dropShadow_566_1278"/>
<feBlend mode="normal" in="SourceGraphic" in2="effect1_dropShadow_566_1278" result="shape"/>
</filter>
</defs>
</svg>
