<svg width="45" height="45" viewBox="0 0 45 45" fill="none" xmlns="http://www.w3.org/2000/svg">
<path d="M37.3001 15.4604C41.5163 15.4604 45 11.9629 45 7.73027C45 3.49753 41.5381 0 37.3001 0C33.0842 0 29.6226 3.49753 29.6226 7.73027C29.6226 11.9629 33.0842 15.4604 37.3001 15.4604ZM0 33.1262C0 36.9356 0.33278 40.099 2.59616 42.3713C4.85944 44.6436 8.0547 45 11.8491 45H29.0901C32.8623 45 36.0575 44.6436 38.3208 42.3713C40.5843 40.099 40.9169 36.9356 40.9169 33.1262V17.9555C39.9408 18.2896 38.8756 18.4678 37.7661 18.4456C37.6108 18.4678 37.4998 18.4678 37.3445 18.4901V33.7277C37.3445 36.0445 37.0561 38.4059 35.7248 39.7649C34.3711 41.1014 31.9747 41.4133 29.6892 41.4133H11.2277C8.94227 41.4133 6.54587 41.1014 5.21447 39.7649C3.86091 38.4059 3.57244 36.0445 3.57244 33.7277V15.4381C3.57244 13.099 3.86091 10.6931 5.19232 9.35647C6.54587 7.99755 8.96442 7.70794 11.2944 7.70794H26.6049C26.6049 7.55205 26.6271 7.41832 26.6493 7.28468C26.6271 6.1708 26.7824 5.10149 27.1375 4.12134H11.7825C8.0547 4.12134 4.85944 4.47778 2.59616 6.75003C0.33278 9.02228 0 12.208 0 15.9282V33.1262Z" fill="black"/>
</svg>
